<svg width="796" height="760" viewBox="0 0 796 760" fill="none" xmlns="http://www.w3.org/2000/svg">
    <path d="M571.581 129.333C584.982 137.683 596.81 138.714 603.509 127.963C610.849 116.181 602.334 103.925 587.165 94.4747L582.894 91.8138L592.804 75.9083L596.338 78.1104C611.655 87.653 624.714 88.0207 630.953 78.0061C636.734 68.7279 628.555 59.5431 619.129 53.6708C610.293 48.1655 597.781 45.2772 587.132 44.9796L599.06 25.8341C608.147 26.9984 621.709 31.1543 633.638 38.5865C651.458 49.6889 664.545 69.7001 651.975 89.8765C645.552 100.186 633.806 104.929 622.953 104.301C631.154 115.748 630.733 130.205 624.035 140.956C610.547 162.605 585.053 161.851 563.846 148.638C552.064 141.297 542.137 131.637 536.756 124.195L548.684 105.05C553.865 113.798 562.008 123.369 571.581 129.333Z" fill="#1D1D1B"/>
    <path d="M572.311 538.327C648.218 441.438 631.881 300.828 535.821 224.267C439.761 147.705 300.354 164.182 224.447 261.071C148.54 357.96 164.877 498.569 260.937 575.131C356.997 651.693 496.404 635.215 572.311 538.327Z" fill="#A69FD6"/>
    <path fill-rule="evenodd" clip-rule="evenodd" d="M609.685 652.372C613.672 648.98 617.579 645.491 621.404 641.909L629.973 651.059C626.003 654.778 621.947 658.399 617.808 661.92C588.94 686.479 556.048 706.174 520.367 720C454.084 745.685 381.497 749.835 312.76 731.866L315.93 719.737C382.117 737.039 452.01 733.045 515.837 708.311C550.198 694.996 581.877 676.028 609.685 652.372Z" fill="#1D1D1B"/>
    <path d="M209.596 607.108L229.698 619.447L216.251 641.732L269.662 674.492L283.109 652.207L303.219 664.545L279.604 703.702L271 698.428C262.688 703.504 255.335 710.458 242.469 729.707L222.36 759.569L156.672 719.268L196.716 652.867L185.974 646.265L209.596 607.108ZM188.018 715.388L213.96 731.306L223.313 717.529C230.624 705.62 239.607 694.842 249.982 685.532L217.902 665.859L188.018 715.388Z" fill="#1D1D1B"/>
    <path d="M91.2057 655.442C75.2419 635.849 73.6564 607.365 99.882 585.623C126.108 563.88 153.388 571.062 169.352 590.655C185.315 610.248 187.046 638.629 160.813 660.342C134.581 682.055 107.177 675.043 91.2057 655.442ZM154.362 603.089C145.242 591.895 131.41 592.32 115.86 605.216C100.173 618.222 97.0676 631.815 106.202 643.009C115.337 654.203 129.155 653.777 144.842 640.808C160.392 627.853 163.497 614.283 154.362 603.089Z" fill="#1D1D1B"/>
    <path d="M100.44 509.597C97.6508 503.316 93.6251 497.673 88.6073 493.011L107.305 485.044C112.499 490.718 116.735 497.213 119.844 504.271C132.789 535.131 117.931 560.145 92.9346 570.804C67.9381 581.462 39.5016 574.523 26.7016 543.992C23.7513 537.574 21.9773 530.67 21.4651 523.614L40.1633 515.641C40.2465 521.844 41.5543 527.969 44.0106 533.657C50.236 548.504 63.9525 555.663 83.1381 547.448C102.324 539.232 106.644 524.429 100.44 509.597Z" fill="#1D1D1B"/>
    <path d="M24.154 440.448L100.518 429.671L103.944 454.422L27.5795 465.205L31.6813 494.789L12.2847 497.533L0.648438 413.592L20.0449 410.856L24.154 440.448Z" fill="#1D1D1B"/>
    <path d="M43.1276 333.176C29.0257 332.765 25.251 341.377 23.5856 353.025C21.9466 363.746 23.751 374.714 28.7348 384.326L7.91278 381.297C4.03843 369.722 2.82247 357.411 4.35651 345.294C8.3929 317.155 22.2039 305.623 48.524 309.438C50.4731 309.716 67.6732 312.578 76.3933 313.839C86.9293 315.567 97.5556 316.679 108.219 317.169L105.019 339.579L90.4152 337.643C101.506 345.103 105.048 355.864 102.779 371.636C100.393 388.302 87.346 402.137 69.5569 399.562C47.8695 396.422 41.3458 374.805 43.1276 333.176ZM58.9895 334.005L58.0951 333.873C55.2878 361.102 60.0295 373.675 70.8732 375.245C72.8025 375.589 74.7824 375.517 76.6816 375.031C78.5808 374.545 80.3558 373.657 81.8889 372.426C83.422 371.196 84.678 369.65 85.5737 367.893C86.4694 366.135 86.9844 364.205 87.0843 362.232C88.8152 350.04 81.3824 337.254 58.9968 334.005H58.9895Z" fill="#1D1D1B"/>
    <path d="M43.7399 223.568C53.1218 203.762 65.7908 193.433 82.1546 201.334C85.9939 202.976 89.258 205.74 91.5263 209.27C93.7946 212.8 94.9632 216.934 94.8819 221.14C98.0983 217.293 102.534 214.685 107.437 213.757C112.341 212.83 117.411 213.639 121.791 216.049C140.911 225.269 141.631 243.102 131.973 263.524L111.828 306.034L24.656 263.935L43.7399 223.568ZM77.26 242.757C81.2891 234.255 81.0273 228.086 74.7 225.049C68.3727 222.012 63.3837 225.783 59.3546 234.322L52.1544 249.521L69.9728 258.125L77.26 242.757ZM105.624 275.335L114.351 256.871C118.715 247.716 117.697 241.4 110.889 238.121C104.082 234.842 98.5984 238.011 94.2638 247.166L85.5364 265.629L105.624 275.335Z" fill="#1D1D1B"/>
    <path d="M99.7793 138.417L131.685 168.493L122.957 113.411L142.201 92.6292L150.929 152.194L215.504 156.243L194.413 179.02L138.87 175.293L170.376 204.973L153.452 223.246L82.8263 156.72L99.7793 138.417Z" fill="#1D1D1B"/>
    <path d="M231.737 77.1531C223.33 65.7244 214.283 68.0499 204.188 73.9183C194.815 79.2347 187.371 87.4337 182.944 97.3186L172.45 78.9798C179.08 68.7469 187.938 60.1739 198.348 53.914C222.777 39.7271 240.297 43.5639 253.577 66.7955C254.552 68.5193 262.952 83.9311 267.345 91.6334C272.499 101.062 278.188 110.183 284.385 118.951L264.93 130.24L257.417 117.447C258.457 130.864 252.246 140.319 238.552 148.256C224.072 156.655 205.221 154.858 196.261 139.138C185.315 119.978 198.159 101.456 231.737 77.1531ZM240.865 90.2468L240.421 89.4619C217.453 104.045 210.559 115.576 216.035 125.142C216.958 126.885 218.238 128.411 219.79 129.617C221.342 130.823 223.131 131.683 225.038 132.139C226.944 132.594 228.925 132.636 230.849 132.26C232.772 131.885 234.595 131.101 236.195 129.961C246.777 123.814 252.166 110.031 240.865 90.2468Z" fill="#1D1D1B"/>
    <path d="M359.058 1.4292C384.076 -1.08689 408.425 13.3935 411.785 47.445C415.145 81.4964 394.091 100.378 369.072 102.894C344.054 105.41 319.719 91.1134 316.367 57.0473C313.014 22.9812 334.032 3.93061 359.058 1.4292ZM367.152 83.4254C381.443 81.9583 388.767 70.1557 386.789 49.9683C384.774 29.6049 375.283 19.46 360.992 20.8904C346.701 22.3208 339.385 34.1677 341.392 54.5311C343.356 74.7404 352.854 84.8632 367.152 83.4254Z" fill="#1D1D1B"/>
    <path d="M481.146 30.5017L466.6 106.857L442.266 102.126L456.811 25.7778L427.72 20.1221L431.422 0.726685L513.939 16.7695L510.244 36.165L481.146 30.5017Z" fill="#1D1D1B"/>
    <path d="M659.186 252.849L690.262 233.27C685.245 227.84 680.745 221.946 676.822 215.665C663.608 194.304 667.331 178.086 687.004 165.711L710.168 151.135L723.266 172.327L701.026 186.338C698.997 187.263 697.208 188.65 695.799 190.39C694.391 192.13 693.402 194.175 692.908 196.365C692.415 198.556 692.432 200.831 692.957 203.014C693.482 205.197 694.501 207.227 695.935 208.946C698.87 214.067 702.49 218.757 706.691 222.884L741.114 201.207L754.241 222.407L672.284 274.027L659.186 252.849Z" fill="#1D1D1B"/>
    <path d="M751.714 324.407C764.855 319.272 765.03 309.846 762.092 298.462C759.481 287.939 753.602 278.534 745.313 271.621L765.641 266.266C773.674 275.419 779.537 286.296 782.783 298.073C789.896 325.596 781.597 341.631 755.874 348.395C753.954 348.893 737.008 352.979 728.492 355.224C718.118 357.744 707.897 360.866 697.88 364.577L692.208 342.673L706.419 338.741C693.328 336.196 685.924 327.657 681.931 312.23C677.72 295.938 684.426 278.069 701.808 273.506C722.986 267.924 737.343 285.287 751.714 324.407ZM736.775 329.828L737.648 329.601C729.764 303.406 720.564 293.657 709.961 296.445C708.05 296.883 706.254 297.725 704.692 298.917C703.129 300.109 701.835 301.622 700.897 303.356C699.958 305.09 699.395 307.006 699.247 308.976C699.098 310.946 699.366 312.926 700.033 314.783C703.117 326.696 714.877 335.587 736.804 329.828H736.775Z" fill="#1D1D1B"/>
    <path d="M714.376 424.474C714.351 431.356 715.719 438.171 718.398 444.5L698.107 444.03C695.683 436.7 694.469 429.018 694.514 421.291C695.293 387.782 719.038 371.123 746.151 371.754C773.264 372.384 796.392 390.496 795.606 423.638C795.684 430.714 794.486 437.746 792.071 444.39L771.773 443.913C774.23 438.223 775.536 432.095 775.613 425.89C775.991 409.751 766.399 397.589 745.562 397.113C724.726 396.636 714.762 408.358 714.376 424.474Z" fill="#1D1D1B"/>
    <path d="M408.029 561.225L505.019 363.195L398.938 378.6L390.007 238.029L291.956 436L388.167 422.033L408.029 561.225Z" fill="#1D1D1B"/>
    <path d="M725.097 633.439C713.34 651.933 699.492 660.617 684.23 650.755C680.623 648.651 677.725 645.505 675.91 641.722C674.096 637.939 673.447 633.692 674.047 629.529C670.38 632.948 665.657 634.988 660.676 635.303C655.695 635.618 650.764 634.188 646.715 631.256C628.881 619.743 630.37 601.958 642.478 582.886L667.721 543.191L749.023 595.739L725.097 633.439ZM694.205 610.254C689.156 618.193 688.654 624.347 694.557 628.143C700.461 631.938 705.878 628.813 710.931 620.838L719.954 606.645L703.336 595.904L694.205 610.254ZM670.084 574.422L659.142 591.666C653.681 600.211 653.911 606.604 660.261 610.699C666.611 614.794 672.444 612.327 677.877 603.778L688.819 586.535L670.084 574.422Z" fill="#1D1D1B"/>
    <path d="M780.603 518.893C774.657 543.324 752.905 561.473 719.674 553.32C686.442 545.166 675.636 519.031 681.581 494.6C687.527 470.168 709.102 451.972 742.345 460.137C775.587 468.302 786.565 494.459 780.603 518.893ZM700.581 499.262C697.213 513.228 705.909 524.06 725.605 528.906C745.48 533.777 758.203 528.2 761.606 514.246C765.009 500.293 756.269 489.453 736.397 484.576C716.684 479.708 703.979 485.3 700.581 499.262Z" fill="#1D1D1B"/>
</svg>
