<svg width="140" height="141" viewBox="0 0 140 141" fill="none" xmlns="http://www.w3.org/2000/svg">
<g clip-path="url(#clip0_105_1115)">
<path d="M108.764 101.543C125.707 79.9165 122.061 48.5316 100.619 31.4425C79.1782 14.3535 48.0618 18.0314 31.1188 39.6575C14.1759 61.2837 17.8225 92.6686 39.2636 109.758C60.7047 126.847 91.8212 123.169 108.764 101.543Z" fill="#F6BCC5"/>
<mask id="path-2-inside-1_105_1115" fill="white">
<rect x="53.7299" y="40.6377" width="32.5401" height="63.1625" rx="5"/>
</mask>
<rect x="53.7299" y="40.6377" width="32.5401" height="63.1625" rx="5" stroke="black" stroke-width="12" mask="url(#path-2-inside-1_105_1115)"/>
<rect x="70" y="61.2896" width="24.5702" height="25.0156" fill="#F6BCC5"/>
<path d="M84.576 79.1429C84.548 79.1235 84.5283 79.0941 84.5209 79.0608C84.5135 79.0275 84.5189 78.9926 84.5361 78.963C84.5532 78.9335 84.5809 78.9116 84.6135 78.9015C84.6462 78.8915 84.6814 78.8942 84.7122 78.9089C85.6307 79.2424 87.7108 80.4054 89.6319 81.5997C89.7216 81.6569 89.8228 81.6937 89.9283 81.7076C90.0338 81.7214 90.141 81.712 90.2425 81.6798C90.4693 81.6002 90.6817 81.4845 90.8716 81.3371C91.0955 81.1623 91.2682 80.9305 91.3716 80.666C91.4191 80.5402 91.4313 80.4039 91.407 80.2716C91.3826 80.1394 91.3227 80.0164 91.2336 79.9158C89.7851 78.248 87.8799 77.1551 86.331 76.2612C85.5923 75.8848 85.7707 74.9533 86.4103 74.7599C86.8046 74.6247 87.753 74.4854 88.8517 74.2775C91.1133 73.8564 91.8516 72.2014 91.8331 70.0199C91.8253 69.873 91.7594 69.7352 91.65 69.6368C91.5406 69.5384 91.3966 69.4875 91.2496 69.4952C90.1175 69.514 89.1025 69.6248 88.2492 69.5697C87.0559 69.4921 86.5233 69.175 85.8801 67.7459C85.385 66.6402 84.8841 65.8222 84.4894 65.5046C84.4379 65.4616 84.3766 65.432 84.3109 65.4183C84.2453 65.4045 84.1772 65.4071 84.1128 65.4257C84.0484 65.4444 83.9895 65.4785 83.9413 65.5252C83.8931 65.5719 83.8572 65.6297 83.8365 65.6935C83.7083 66.1539 83.7462 67.5975 83.7462 67.5975C83.7462 67.5975 83.0524 66.2569 82.5877 65.5627C82.5423 65.4956 82.4779 65.4434 82.4028 65.413C82.3276 65.3826 82.2451 65.3753 82.1658 65.392C82.0865 65.4087 82.0139 65.4486 81.9574 65.5067C81.9009 65.5648 81.863 65.6384 81.8485 65.7182C81.7661 66.2133 81.7511 67.2428 81.696 68.5882C81.6687 69.2301 81.6097 70.5897 81.1485 71.778C80.8034 72.7234 80.086 73.7246 78.4763 73.9656C76.8838 74.2103 74.5653 74.0731 73.4751 73.8048C72.0143 73.4313 70.3055 72.1617 69.4619 70.3423C69.4396 70.2972 69.404 70.2599 69.36 70.2354C69.316 70.2108 69.2656 70.2003 69.2155 70.205C69.1653 70.2098 69.1178 70.2297 69.0792 70.262C69.0406 70.2944 69.0128 70.3377 68.9993 70.3863C68.6306 71.6334 69.0148 73.5906 70.0694 74.9082C68.6326 75.9725 65.1708 78.4355 63.8986 81.2037C63.8529 81.3034 63.832 81.4126 63.8374 81.5221C63.8429 81.6315 63.8746 81.7381 63.9299 81.8327C64.059 82.0659 64.2358 82.2691 64.4488 82.4293C64.6618 82.5895 64.9061 82.7029 65.1659 82.7623C65.2657 82.7826 65.3688 82.7799 65.4674 82.7545C65.566 82.7291 65.6575 82.6816 65.7351 82.6156C67.3386 81.2769 69.6495 79.387 70.8218 78.9747C70.8525 78.9623 70.8867 78.9615 70.9179 78.9725C70.9492 78.9834 70.9754 79.0053 70.9917 79.0342C71.008 79.063 71.0132 79.0968 71.0064 79.1292C70.9996 79.1616 70.9813 79.1905 70.9548 79.2104C70.1517 79.8218 67.7355 81.4108 65.9381 84.6592C65.885 84.7543 65.855 84.8605 65.8506 84.9693C65.8461 85.0782 65.8674 85.1865 65.9126 85.2856C66.0351 85.536 66.2179 85.7522 66.4445 85.9146C66.6133 86.044 66.7961 86.1541 66.9894 86.2428C67.1188 86.301 67.2626 86.3191 67.4024 86.2948C67.5422 86.2706 67.6715 86.2051 67.7737 86.1067C69.4833 84.4604 70.6225 83.3305 73.104 82.1957C74.9533 81.416 78.2009 80.9697 81.1836 81.7433C83.6585 82.3851 85.4346 83.4168 88.0857 85.4133C88.1744 85.4803 88.2775 85.5259 88.3868 85.5463C88.4961 85.5667 88.6087 85.5614 88.7156 85.5309C88.9517 85.4635 89.2535 85.3419 89.472 85.1294C89.6299 84.9757 89.7637 84.7992 89.8689 84.6056C89.9305 84.4905 89.9591 84.3605 89.9516 84.2302C89.944 84.0998 89.9006 83.9741 89.8262 83.8668C88.3857 81.7753 85.9597 80.0343 84.576 79.1432" fill="#1D1D1B"/>
<circle cx="70" cy="70.5" r="49.0948" stroke="white" stroke-width="2"/>
</g>
<defs>
<clipPath id="clip0_105_1115">
<rect width="140" height="140" fill="white" transform="translate(0 0.5)"/>
</clipPath>
</defs>
</svg>
