<svg width="140" height="141" viewBox="0 0 140 141" fill="none" xmlns="http://www.w3.org/2000/svg">
<path d="M19.9052 70.5204C19.9065 83.5423 25.0043 96.0459 34.1065 105.352C43.2088 114.659 55.5914 120.028 68.6016 120.309V20.7238C55.59 21.0051 43.2062 26.3751 34.1037 35.6832C25.0012 44.9914 19.9043 57.497 19.9052 70.5204Z" fill="#FF6A00"/>
<path d="M69.6764 20.7075H68.6097V120.309H69.6764C76.2667 120.394 82.8083 119.168 88.9215 116.703C95.0347 114.237 100.598 110.582 105.288 105.949C109.978 101.315 113.702 95.7954 116.244 89.7102C118.786 83.625 120.095 77.0953 120.095 70.5C120.095 63.9046 118.786 57.3749 116.244 51.2897C113.702 45.2046 109.978 39.6851 105.288 35.0515C100.598 30.4179 95.0347 26.7625 88.9215 24.2973C82.8083 21.8322 76.2667 20.6064 69.6764 20.6911V20.7075Z" fill="#62D6FF"/>
<path d="M89.1628 77.6463L75.7479 77.6463L75.7479 91.0612L61.4553 91.0612L61.4553 77.6463L48.0404 77.6463L48.0404 63.3537L61.4553 63.3537L61.4553 49.9388L75.7479 49.9388L75.7479 63.3537L89.1628 63.3537L89.1628 77.6463Z" fill="white"/>
<circle cx="70" cy="70.5" r="49.0948" stroke="white" stroke-width="2"/>
</svg>
