<svg width="140" height="141" viewBox="0 0 140 141" fill="none" xmlns="http://www.w3.org/2000/svg">
<g clip-path="url(#clip0_105_1111)">
<path d="M90.1255 101.511C90.7127 101.846 91.216 102.35 91.5515 102.937C91.8871 103.524 92.0548 104.279 92.0548 105.034C92.0548 105.789 91.8871 106.46 91.5515 107.131C91.216 107.802 90.7127 108.221 90.1255 108.557C89.5383 108.892 88.7834 109.06 88.0284 109.06C87.3573 109.06 86.6863 108.976 86.183 108.725C85.6797 108.473 85.1764 108.138 84.8408 107.718L86.0152 106.628C86.6024 107.215 87.2735 107.55 88.0284 107.55C88.6156 107.55 89.1189 107.383 89.4544 107.047C89.8739 106.712 90.1255 106.292 90.2094 105.705H87.0218V104.363H90.1255C89.9577 103.859 89.7061 103.44 89.3705 103.104C88.9511 102.769 88.5317 102.601 87.9445 102.601C87.1896 102.601 86.5185 102.937 85.9313 103.524L84.7569 102.433C85.0925 102.014 85.5958 101.678 86.0991 101.427C86.6024 101.175 87.2735 101.091 87.9445 101.091C88.8672 101.007 89.5383 101.175 90.1255 101.511Z" fill="#1D1D1B"/>
<path d="M80.3143 105.704H79.056V108.807H77.2944V101.006H79.056V104.11H80.3143L82.3275 101.006H84.2568L81.7403 104.781L84.3407 108.807H82.3275L80.3143 105.704Z" fill="#1D1D1B"/>
<path d="M103.77 101.09V108.891H93.5366V101.09H95.2982V107.382H97.7308V101.09H99.4924V107.382H101.925V101.09H103.77Z" fill="#1D1D1B"/>
<path d="M105.349 101.09H111.64V102.516H107.11V104.11H109.291C110.214 104.11 110.969 104.278 111.472 104.697C111.975 105.117 112.227 105.62 112.227 106.375C112.227 107.13 111.975 107.717 111.388 108.22C110.801 108.64 110.046 108.891 109.039 108.891H105.349V101.09ZM108.872 107.549C109.291 107.549 109.711 107.465 109.962 107.298C110.214 107.13 110.298 106.878 110.298 106.543C110.298 105.872 109.794 105.536 108.872 105.536H107.11V107.633H108.872V107.549Z" fill="#1D1D1B"/>
<path d="M119.174 101.511C119.761 101.846 120.264 102.35 120.6 102.937C120.935 103.524 121.103 104.279 121.103 105.034C121.103 105.789 120.935 106.46 120.6 107.131C120.264 107.802 119.761 108.221 119.174 108.557C118.587 108.892 117.832 109.06 117.077 109.06C116.406 109.06 115.734 108.976 115.231 108.725C114.728 108.473 114.225 108.138 113.889 107.718L115.063 106.628C115.651 107.215 116.322 107.55 117.077 107.55C117.664 107.55 118.167 107.383 118.503 107.047C118.922 106.712 119.174 106.292 119.258 105.705H116.07V104.363H119.174C119.006 103.859 118.754 103.44 118.419 103.104C117.999 102.769 117.58 102.601 116.993 102.601C116.238 102.601 115.567 102.937 114.979 103.524L113.805 102.433C114.141 102.014 114.644 101.678 115.147 101.427C115.651 101.175 116.322 101.091 116.993 101.091C117.915 101.007 118.587 101.175 119.174 101.511Z" fill="#1D1D1B"/>
<path d="M125.701 105.704H124.443V108.808H122.681V101.006H124.443V104.11H125.701L127.714 101.006H129.644L127.127 104.781L129.727 108.808H127.714L125.701 105.704Z" fill="#1D1D1B"/>
<path d="M69.6897 130.07C62.4097 130.07 55.1996 123.49 55.1996 116.77H57.8596C57.8596 122.02 63.8097 127.41 69.6897 127.41V130.07Z" fill="#FF7134"/>
<path d="M62.41 134.69L61.08 132.38L68.5 128.32L65.28 121.32L67.66 120.2L72 129.44L62.41 134.69Z" fill="#FF7134"/>
<path d="M107.423 115.478V117.799L100.249 133.993H96.5564L103.519 118.379H96.2399V121.544H93.0222V115.478H107.423Z" fill="#1D1D1B"/>
<path d="M110.377 124.076C109.533 123.126 109.111 121.913 109.111 120.384C109.111 118.854 109.533 117.588 110.377 116.691C111.221 115.742 112.329 115.32 113.7 115.32C115.072 115.32 116.179 115.794 117.023 116.691C117.867 117.641 118.289 118.854 118.289 120.384C118.289 121.913 117.867 123.179 117.023 124.076C116.179 125.025 115.072 125.447 113.7 125.447C112.329 125.447 111.221 125.025 110.377 124.076ZM115.072 122.546C115.441 122.071 115.599 121.333 115.599 120.331C115.599 119.381 115.441 118.643 115.072 118.115C114.702 117.641 114.28 117.377 113.647 117.377C113.067 117.377 112.592 117.641 112.223 118.115C111.854 118.59 111.696 119.329 111.696 120.278C111.696 121.227 111.854 121.966 112.223 122.441C112.592 122.968 113.067 123.179 113.647 123.179C114.28 123.285 114.755 123.074 115.072 122.546ZM124.672 115.478H127.837L115.23 133.993H112.065L124.672 115.478ZM123.881 133.571C123.195 133.149 122.667 132.568 122.245 131.777C121.876 130.986 121.665 130.089 121.665 129.087C121.665 128.085 121.876 127.188 122.245 126.397C122.615 125.606 123.195 125.025 123.881 124.603C124.566 124.181 125.357 123.97 126.254 123.97C127.626 123.97 128.733 124.445 129.577 125.342C130.421 126.291 130.843 127.505 130.843 129.034C130.843 130.564 130.421 131.83 129.577 132.727C128.733 133.676 127.626 134.098 126.254 134.098C125.357 134.204 124.566 133.993 123.881 133.571ZM127.626 131.25C127.995 130.722 128.153 130.036 128.153 129.087C128.153 128.138 127.995 127.399 127.626 126.924C127.256 126.397 126.834 126.186 126.201 126.186C125.621 126.186 125.146 126.45 124.777 126.924C124.408 127.399 124.25 128.138 124.25 129.14C124.25 130.089 124.408 130.828 124.777 131.355C125.146 131.83 125.621 132.094 126.201 132.094C126.834 132.041 127.309 131.777 127.626 131.25Z" fill="#1D1D1B"/>
<path d="M93.1278 4.22907L4.06186 55.6475C3.52968 55.9548 3.34736 56.6352 3.65463 57.1674L35.5309 112.373C35.8382 112.905 36.5187 113.087 37.0509 112.78L126.117 61.3618C126.649 61.0545 126.831 60.3741 126.524 59.8419L94.6478 4.63633C94.3405 4.10418 93.66 3.92184 93.1278 4.22907Z" fill="#FFD0D8"/>
<path d="M78.8091 19.1132L79.2116 18.8808L79.075 20.3118L80.508 20.9626L80.078 21.2108L79.0354 20.7347L78.9302 21.8736L78.5196 22.1106L78.6699 20.567L77.3416 19.9604L77.7716 19.7122L78.7099 20.1437L78.8091 19.1132Z" fill="#1D1D1B"/>
<path d="M80.7578 17.988L81.1604 17.7556L81.0238 19.1865L82.4564 19.8376L82.0264 20.0859L80.9837 19.6097L80.8785 20.7486L80.468 20.9856L80.6183 19.4419L79.29 18.8354L79.72 18.5871L80.6583 19.0187L80.7578 17.988Z" fill="#1D1D1B"/>
<path d="M82.7069 16.8626L83.1093 16.6302L82.9728 18.0612L84.4058 18.712L83.9755 18.9604L82.9329 18.4843L82.8277 19.6231L82.4172 19.8601L82.5674 18.3165L81.2392 17.71L81.6692 17.4617L82.6075 17.8933L82.7069 16.8626Z" fill="#1D1D1B"/>
<path d="M84.6554 15.7377L85.0579 15.5053L84.9214 16.9363L86.3544 17.5871L85.9244 17.8354L84.8817 17.3592L84.7765 18.4981L84.366 18.7351L84.5159 17.1912L83.1877 16.5847L83.6176 16.3364L84.5558 16.768L84.6554 15.7377Z" fill="#1D1D1B"/>
<path d="M86.6044 14.6125L87.0069 14.3801L86.8703 15.8111L88.3028 16.4621L87.8729 16.7103L86.8302 16.2343L86.725 17.3731L86.3145 17.6101L86.4648 16.0665L85.1365 15.4599L85.5665 15.2117L86.5048 15.6432L86.6044 14.6125Z" fill="#1D1D1B"/>
<path d="M88.553 13.4874L88.9555 13.255L88.819 14.686L90.2515 15.337L89.8215 15.5853L88.7788 15.1092L88.6736 16.248L88.2632 16.485L88.4134 14.9414L87.0852 14.3349L87.5152 14.0866L88.4534 14.5181L88.553 13.4874Z" fill="#1D1D1B"/>
<path d="M90.5026 12.3618L90.9051 12.1294L90.7686 13.5604L92.2011 14.2114L91.7712 14.4596L90.7285 13.9835L90.6233 15.1224L90.2129 15.3593L90.3631 13.8157L89.0349 13.2092L89.4649 12.9609L90.4031 13.3925L90.5026 12.3618Z" fill="#1D1D1B"/>
<path d="M3.84015 57.4886C3.43048 56.7791 3.6736 55.8718 4.38316 55.4621L48.2414 30.1405L81.2279 87.2747L37.3696 112.596C36.66 113.006 35.7527 112.763 35.3431 112.053L3.84015 57.4886Z" fill="#FF7134"/>
<path d="M76.4136 58.0041C76.3597 57.9997 76.3094 57.975 76.2728 57.9351C76.2362 57.8952 76.216 57.843 76.2162 57.7889C76.2164 57.7347 76.2369 57.6827 76.2738 57.643C76.3107 57.6034 76.3611 57.5791 76.4151 57.575C77.9404 57.3048 81.7181 57.2527 85.3023 57.3695C85.4708 57.3769 85.6389 57.3473 85.7947 57.2827C85.9505 57.2181 86.0903 57.1201 86.2041 56.9956C86.4524 56.7066 86.6523 56.3793 86.7961 56.0264C86.965 55.609 87.0183 55.1538 86.9506 54.7086C86.9161 54.4983 86.8248 54.3015 86.6866 54.1392C86.5485 53.977 86.3686 53.8556 86.1665 53.7881C82.8559 52.6464 79.3739 52.6563 76.5389 52.6567C75.2263 52.7254 74.7329 51.3052 75.4578 50.5326C75.8919 50.0345 77.0836 49.0916 78.4272 47.9353C81.1984 45.5644 80.9002 42.7069 79.1456 39.7266C79.0184 39.5311 78.8187 39.3942 78.5905 39.3458C78.3623 39.2975 78.1243 39.3417 77.9286 39.4688C76.3892 40.392 75.0835 41.3486 73.8684 41.9493C72.1685 42.7887 71.1859 42.7755 69.1702 41.3233C67.6139 40.1978 66.2778 39.4716 65.4842 39.3485C65.3794 39.3304 65.2718 39.3383 65.1707 39.3715C65.0697 39.4046 64.9783 39.4621 64.9047 39.5388C64.831 39.6154 64.7772 39.709 64.7481 39.8113C64.719 39.9136 64.7154 40.0214 64.7376 40.1254C64.9265 40.859 66.1228 42.8109 66.1228 42.8109C66.1228 42.8109 64.1077 41.5204 62.9193 40.9357C62.8038 40.8795 62.6741 40.859 62.5468 40.8768C62.4196 40.8946 62.3005 40.9499 62.2048 41.0357C62.1092 41.1215 62.0412 41.2338 62.0097 41.3584C61.9781 41.483 61.9844 41.6141 62.0278 41.7351C62.3072 42.4802 63.1026 43.9054 64.0934 45.7962C64.5647 46.6991 65.5613 48.6125 65.8701 50.6096C66.1457 52.181 65.9543 54.1244 63.9354 55.7312C61.943 57.3294 58.6511 58.9788 56.9416 59.4746C54.64 60.1197 51.2877 59.7311 48.6873 57.902C48.6209 57.8577 48.5425 57.8346 48.4627 57.8358C48.3829 57.837 48.3053 57.8625 48.2402 57.9087C48.1751 57.955 48.1256 58.02 48.0983 58.095C48.071 58.17 48.0671 58.2516 48.0871 58.3289C48.5694 60.3334 50.6483 62.716 53.1405 63.689C52.0116 66.2891 49.211 72.4146 49.6586 77.2235C49.675 77.3966 49.7328 77.5631 49.8271 77.7091C49.9213 77.8551 50.0494 77.9762 50.2003 78.0623C50.5623 78.28 50.9662 78.419 51.3856 78.47C51.8049 78.5211 52.2303 78.4832 52.634 78.3587C52.7871 78.3075 52.9266 78.2222 53.0418 78.1091C53.157 77.9961 53.245 77.8583 53.2991 77.7062C54.4395 74.5972 56.1142 70.1708 57.3969 68.6756C57.4292 68.6342 57.4755 68.606 57.5271 68.5963C57.5787 68.5865 57.632 68.5959 57.6772 68.6226C57.7224 68.6493 57.7564 68.6915 57.7728 68.7414C57.7892 68.7912 57.7868 68.8454 57.7663 68.8937C57.1483 70.3697 55.0906 74.4664 55.1978 80.3509C55.2002 80.5236 55.2433 80.6932 55.3234 80.8462C55.4036 80.9991 55.5187 81.131 55.6593 81.2312C56.026 81.4779 56.4483 81.6298 56.8881 81.6731C57.2225 81.717 57.5607 81.7232 57.8964 81.6918C58.1202 81.6691 58.332 81.58 58.5047 81.4359C58.6773 81.2918 58.8029 81.0993 58.8653 80.8833C59.9075 77.2679 60.5759 74.8137 63.0833 71.2887C65.0042 68.7523 69.1091 65.5655 73.8172 64.2633C77.7238 63.1827 80.9801 63.1913 86.2023 63.8309C86.3773 63.8526 86.5549 63.8334 86.7212 63.7748C86.8874 63.7162 87.0378 63.6197 87.1605 63.493C87.4311 63.2133 87.7491 62.8072 87.8806 62.3422C87.9756 62.0062 88.0193 61.6577 88.0103 61.3085C88.0036 61.1016 87.9399 60.9006 87.8262 60.7276C87.7126 60.5546 87.5533 60.4164 87.3661 60.3281C83.7305 58.5984 79.0199 58.1312 76.4138 58.0045" fill="#1D1D1B"/>
<path d="M11.9636 57.1861L12.4328 57.9988L13.0049 57.6685C13.6862 57.2752 14.1862 57.3547 14.5051 57.9072C14.6779 58.2066 14.7131 58.4801 14.6105 58.7276C14.5079 58.9751 14.2934 59.1927 13.9668 59.3804L13.012 59.9316L11.3606 57.0712L13.1437 56.0418L13.3441 56.389L11.9636 57.1861ZM13.7704 59.0307C13.9412 58.9465 14.0774 58.8055 14.1557 58.6319C14.1831 58.5524 14.1918 58.4676 14.181 58.3841C14.1702 58.3007 14.1402 58.2209 14.0934 58.151C13.987 57.9667 13.8589 57.8679 13.7092 57.8546C13.5154 57.8532 13.3256 57.9103 13.1648 58.0186L12.6244 58.3306L13.2143 59.3523L13.7704 59.0307Z" fill="#1D1D1B"/>
<path d="M15.0366 55.885C15.2089 55.7838 15.4035 55.7266 15.6032 55.7187C15.8083 55.7125 16.0107 55.7668 16.1852 55.8748C16.3882 56.0137 16.5575 56.1964 16.6805 56.4095C16.8035 56.6225 16.8771 56.8605 16.8958 57.1058C16.9018 57.3107 16.8476 57.5128 16.7397 57.6872C16.6317 57.8551 16.4852 57.9948 16.3123 58.0946C16.1394 58.1945 15.9451 58.2515 15.7457 58.2611C15.5408 58.2674 15.3386 58.2133 15.1641 58.1056C14.9609 57.9668 14.7916 57.7841 14.6685 57.5711C14.5455 57.358 14.472 57.12 14.4534 56.8746C14.447 56.6695 14.5012 56.4671 14.6092 56.2926C14.7159 56.1236 14.8627 55.9836 15.0366 55.885ZM16.1298 57.7786C16.216 57.7318 16.2906 57.6661 16.348 57.5866C16.4055 57.5071 16.4444 57.4157 16.4618 57.3191C16.5013 57.1176 16.4468 56.8879 16.2981 56.6301C16.1447 56.3643 15.9725 56.1996 15.7814 56.136C15.6887 56.1046 15.5902 56.0942 15.493 56.1054C15.3958 56.1166 15.3023 56.1492 15.2191 56.2008C15.1333 56.2466 15.0584 56.3105 14.9996 56.388C14.9408 56.4656 14.8995 56.5549 14.8786 56.65C14.8358 56.8431 14.8934 57.0765 15.0513 57.35C15.2044 57.6152 15.3765 57.7796 15.5676 57.8433C15.6603 57.8747 15.7588 57.8852 15.856 57.874C15.9532 57.8628 16.0467 57.8302 16.1298 57.7786Z" fill="#1D1D1B"/>
<path d="M18.2173 54.096L19.4428 56.2188L19.0837 56.4261L18.5484 55.4988L17.5425 56.0795L18.0779 57.0068L17.7188 57.2141L16.4932 55.0914L16.8523 54.8841L17.3628 55.7682L18.3686 55.1875L17.8582 54.3034L18.2173 54.096Z" fill="#1D1D1B"/>
<path d="M20.4497 52.8071L21.0304 56.3274L20.6556 56.5438L20.4909 55.5293L18.5287 53.9162L18.9271 53.6862L20.4414 54.9791L20.0792 53.0211L20.4497 52.8071Z" fill="#1D1D1B"/>
<path d="M22.7411 53.9515C22.8909 53.8641 23.0196 53.7448 23.1183 53.6022L23.312 53.9376C23.2598 54.0058 23.2005 54.0683 23.1352 54.124C23.0623 54.1868 22.9837 54.2428 22.9005 54.291C22.7021 54.4131 22.474 54.4783 22.2411 54.4795C22.0298 54.4777 21.8238 54.4137 21.6486 54.2956C21.4618 54.1683 21.3074 53.9991 21.1976 53.8015C21.0814 53.6067 21.0155 53.3861 21.0057 53.1594C20.997 52.9451 21.0483 52.7325 21.1537 52.5457C21.2656 52.351 21.4285 52.1905 21.6248 52.0815C21.7762 51.9896 21.9408 51.9214 22.1129 51.8793L22.3086 52.2183C22.1432 52.2471 21.9843 52.305 21.8392 52.3894C21.7446 52.4402 21.6611 52.5095 21.5938 52.5931C21.5264 52.6768 21.4765 52.7731 21.4471 52.8764C21.388 53.0838 21.4337 53.3178 21.5842 53.5782C21.7346 53.8387 21.915 53.9947 22.1253 54.0462C22.2291 54.0722 22.337 54.0772 22.4427 54.0609C22.5485 54.0447 22.6499 54.0075 22.7411 53.9515Z" fill="#1D1D1B"/>
<path d="M24.257 50.6091L25.4825 52.7318L25.1235 52.9391L24.5881 52.0118L23.5823 52.5925L24.1177 53.5198L23.7586 53.7271L22.533 51.6044L22.8921 51.3971L23.4026 52.2812L24.4084 51.7005L23.898 50.8163L24.257 50.6091Z" fill="#1D1D1B"/>
<path d="M26.4768 50.3275C26.2912 50.0242 26.03 49.9697 25.6933 50.164C25.5747 50.2331 25.4682 50.3211 25.378 50.4247C25.2883 50.5254 25.2101 50.6358 25.1449 50.7539L24.9467 50.4107C25.0202 50.2884 25.1091 50.1762 25.2114 50.0768C25.3149 49.9736 25.4312 49.8842 25.5575 49.8108C25.8416 49.6468 26.0891 49.5926 26.3001 49.6483C26.511 49.704 26.7016 49.8822 26.8717 50.1829L27.1618 50.6943L27.3127 50.9642C27.3674 51.059 27.4749 51.2336 27.6359 51.488L27.2889 51.6883L27.095 51.3524C27.0979 51.5078 27.058 51.661 26.9797 51.7953C26.8942 51.9401 26.7712 52.0593 26.6238 52.1402C26.5007 52.2127 26.3625 52.2556 26.22 52.2654C26.0856 52.2757 25.9509 52.2489 25.8307 52.1878C25.7089 52.1245 25.6085 52.0267 25.542 51.9066C25.41 51.6781 25.429 51.4348 25.599 51.1768C25.7689 50.9187 26.0615 50.6356 26.4768 50.3275ZM26.6758 50.6173L26.662 50.5934C26.4123 50.7529 26.1894 50.9507 26.0012 51.1796C25.8689 51.3575 25.8439 51.5177 25.9262 51.66C25.9535 51.7099 25.9906 51.7537 26.0353 51.789C26.08 51.8242 26.1313 51.85 26.1862 51.8649C26.2471 51.8795 26.3103 51.8814 26.3719 51.8706C26.4335 51.8598 26.4923 51.8366 26.5445 51.8022C26.625 51.7561 26.6951 51.6939 26.7504 51.6194C26.8056 51.545 26.8449 51.4599 26.8658 51.3695C26.9168 51.1758 26.8535 50.9251 26.6758 50.6173Z" fill="#1D1D1B"/>
<path d="M28.4658 48.179L29.6914 50.3017L29.3325 50.5089L28.8974 49.7552L28.491 49.9898L28.3542 51.0738L27.9169 51.3262L28.0663 50.109C27.9183 50.1469 27.7624 50.1389 27.6191 50.0861C27.4479 50.004 27.3116 49.8634 27.2349 49.6896C27.1582 49.5159 27.1461 49.3204 27.2008 49.1385C27.3016 48.9162 27.4753 48.7348 27.6931 48.6246L28.4658 48.179ZM27.8727 48.9372C27.754 48.997 27.6587 49.0948 27.6018 49.2149C27.5845 49.2739 27.5797 49.3359 27.5878 49.3969C27.5958 49.4579 27.6166 49.5166 27.6486 49.5691C27.6806 49.6217 27.7233 49.6669 27.7738 49.702C27.8244 49.7371 27.8817 49.7612 27.9421 49.7729C28.0809 49.7769 28.2177 49.7393 28.335 49.6649L28.7177 49.444L28.287 48.698L27.8727 48.9372Z" fill="#1D1D1B"/>
<path d="M31.1159 49.4792L29.8903 47.3565L30.2494 47.1492L30.8439 48.1789L31.0894 46.6638L31.5115 46.4201L31.2404 47.9548L32.8239 48.4927L32.3623 48.7593L30.8988 48.2733L31.4751 49.2715L31.1159 49.4792Z" fill="#1D1D1B"/>
<path d="M33.444 46.305C33.2582 46.0019 32.997 45.9474 32.6605 46.1416C32.5418 46.2106 32.4353 46.2987 32.3451 46.4023C32.2555 46.503 32.1773 46.6134 32.112 46.7315L31.9138 46.3883C31.9873 46.266 32.0763 46.1538 32.1786 46.0543C32.2821 45.9512 32.3984 45.8618 32.5246 45.7884C32.8087 45.6243 33.0562 45.5702 33.2672 45.6259C33.4781 45.6816 33.6687 45.8598 33.8388 46.1604L34.129 46.6718L34.2797 46.9418C34.3344 47.0366 34.4419 47.2112 34.603 47.4656L34.2564 47.6657L34.0624 47.3297C34.0654 47.4851 34.0255 47.6383 33.9473 47.7726C33.8617 47.9174 33.7387 48.0366 33.5912 48.1176C33.4682 48.19 33.33 48.2329 33.1875 48.2428C33.0531 48.2531 32.9184 48.2263 32.7981 48.1652C32.6764 48.1019 32.576 48.0041 32.5094 47.884C32.3775 47.6555 32.3965 47.4122 32.5665 47.1541C32.7365 46.896 33.029 46.613 33.444 46.305ZM33.6428 46.595L33.629 46.571C33.3794 46.7306 33.1564 46.9284 32.9682 47.1572C32.8358 47.3352 32.8108 47.4954 32.8932 47.6376C32.9206 47.6875 32.9577 47.7314 33.0024 47.7666C33.0471 47.8018 33.0984 47.8276 33.1533 47.8426C33.2141 47.8571 33.2773 47.8591 33.3389 47.8483C33.4005 47.8375 33.4593 47.8142 33.5116 47.7799C33.592 47.7338 33.6621 47.6715 33.7174 47.5971C33.7726 47.5226 33.8119 47.4375 33.8327 47.3472C33.8838 47.1534 33.8205 46.9027 33.6428 46.595Z" fill="#1D1D1B"/>
<path d="M33.9102 45.0357L34.2693 44.8284L34.4629 45.1638C34.4616 45.0112 34.5024 44.8612 34.5808 44.7304C34.6705 44.5883 34.7952 44.4718 34.9431 44.392C35.1036 44.2968 35.2887 44.2513 35.4751 44.2612C35.6708 44.2746 35.8588 44.3429 36.0174 44.4585C36.2036 44.6005 36.3599 44.7781 36.477 44.981C36.5941 45.1839 36.6698 45.4079 36.6997 45.6403C36.7194 45.8347 36.6842 46.0308 36.598 46.2062C36.5134 46.3725 36.3814 46.5101 36.2187 46.6016C36.0757 46.6897 35.9125 46.7395 35.7446 46.7462C35.5921 46.7486 35.4418 46.7089 35.3103 46.6315L35.9388 47.72L35.5797 47.9273L33.9102 45.0357ZM35.9501 46.3464C36.0379 46.3016 36.1132 46.2357 36.1693 46.1547C36.2254 46.0737 36.2605 45.98 36.2714 45.882C36.2686 45.6442 36.2047 45.4112 36.0858 45.2053C35.9669 44.9993 35.7971 44.8274 35.5925 44.7061C35.5022 44.6667 35.4036 44.6503 35.3054 44.6583C35.2071 44.6664 35.1125 44.6987 35.0298 44.7523C34.9153 44.8165 34.8224 44.9133 34.7631 45.0304C34.7038 45.1475 34.6807 45.2796 34.6968 45.4099C34.75 45.7631 34.9348 46.0831 35.214 46.3058C35.3188 46.3848 35.4448 46.4309 35.5759 46.4381C35.707 46.4453 35.8372 46.4134 35.9501 46.3463L35.9501 46.3464Z" fill="#1D1D1B"/>
<path d="M37.8039 42.7877L37.984 43.0995L37.2776 43.5073L38.3232 45.3182L37.964 45.5255L36.9185 43.7146L36.2122 44.1224L36.0322 43.8106L37.8039 42.7877Z" fill="#1D1D1B"/>
<path d="M39.7321 42.6745C39.5465 42.3713 39.2853 42.3168 38.9486 42.511C38.83 42.5801 38.7235 42.6682 38.6333 42.7717C38.5437 42.8725 38.4655 42.9829 38.4002 43.1009L38.202 42.7577C38.2755 42.6355 38.3644 42.5233 38.4667 42.4238C38.5702 42.3207 38.6865 42.2313 38.8128 42.1578C39.0969 41.9938 39.3444 41.9396 39.5554 41.9953C39.7663 42.051 39.9569 42.2292 40.127 42.5299L40.4171 43.0413L40.568 43.3113C40.6227 43.406 40.7302 43.5807 40.8912 43.835L40.5447 44.0351L40.3507 43.6991C40.3537 43.8545 40.3138 44.0077 40.2355 44.142C40.15 44.2869 40.027 44.406 39.8795 44.487C39.7565 44.5595 39.6183 44.6024 39.4758 44.6122C39.3413 44.6225 39.2066 44.5957 39.0864 44.5346C38.9646 44.4713 38.8642 44.3735 38.7977 44.2534C38.6658 44.0249 38.6848 43.7816 38.8547 43.5236C39.0246 43.2655 39.3171 42.9825 39.7321 42.6745ZM39.9311 42.9644L39.9173 42.9404C39.6676 43.1 39.4446 43.2978 39.2565 43.5266C39.1241 43.7046 39.0991 43.8648 39.1814 44.0071C39.2088 44.057 39.2459 44.1008 39.2906 44.136C39.3353 44.1712 39.3866 44.1971 39.4415 44.212C39.5023 44.2266 39.5655 44.2285 39.6271 44.2177C39.6888 44.2069 39.7476 44.1836 39.7999 44.1493C39.8803 44.1032 39.9504 44.0409 40.0056 43.9665C40.0609 43.892 40.1002 43.807 40.121 43.7166C40.1721 43.5229 40.1088 43.2721 39.9311 42.9644Z" fill="#1D1D1B"/>
<path d="M82.861 120.365H81.9537V115.318H77.5079L77.4172 117.258C77.3151 119.481 76.9635 120.365 76.283 120.365H75.9541V122.86H77.179V121.42H81.6362V122.86H82.861V120.365ZM80.6041 120.365H77.8481C78.3358 119.9 78.5513 119.038 78.642 117.416L78.6987 116.384H80.6041V120.365ZM84.72 118.38C84.72 116.974 85.4685 116.282 86.3304 116.282C87.1924 116.282 87.9409 116.974 87.9409 118.38C87.9409 119.787 87.1924 120.467 86.3304 120.467C85.4685 120.467 84.72 119.787 84.72 118.38ZM86.3304 115.182C84.8447 115.182 83.325 116.18 83.325 118.38C83.325 120.592 84.8447 121.567 86.3304 121.567C87.8162 121.567 89.3359 120.592 89.3359 118.38C89.3359 116.18 87.8162 115.182 86.3304 115.182Z" fill="black"/>
</g>
<defs>
<clipPath id="clip0_105_1111">
<rect width="140" height="140" fill="white" transform="translate(0 0.5)"/>
</clipPath>
</defs>
</svg>
