<svg width="140" height="141" viewBox="0 0 140 141" fill="none" xmlns="http://www.w3.org/2000/svg">
<path d="M69.6763 20.7075H68.6097V120.309H69.6763C76.2667 120.394 82.8082 119.168 88.9214 116.703C95.0346 114.237 100.598 110.582 105.288 105.949C109.978 101.315 113.702 95.7954 116.244 89.7102C118.786 83.625 120.095 77.0953 120.095 70.5C120.095 63.9046 118.786 57.3749 116.244 51.2897C113.702 45.2046 109.978 39.6851 105.288 35.0515C100.598 30.4179 95.0346 26.7625 88.9214 24.2973C82.8082 21.8322 76.2667 20.6064 69.6763 20.6911V20.7075Z" fill="#A98EE2"/>
<path d="M19.9052 70.5204C19.9065 83.5423 25.0043 96.0459 34.1065 105.352C43.2088 114.659 55.5914 120.028 68.6016 120.309V20.7238C55.59 21.0051 43.2062 26.3751 34.1037 35.6832C25.0012 44.9914 19.9043 57.497 19.9052 70.5204Z" fill="#FF6A00"/>
<path fill-rule="evenodd" clip-rule="evenodd" d="M85.4712 60.6162C91.1802 53.7848 87.7325 48.6484 86.2709 47.4266C86.2709 47.4266 66.8137 69.9944 59.3334 78.4691C58.0383 77.3819 56.45 76.7035 54.7696 76.5197C53.0891 76.3358 51.3919 76.6548 49.8926 77.4363C48.3933 78.2178 47.1593 79.4266 46.3466 80.91C45.534 82.3933 45.1792 84.0845 45.3271 85.7697C45.4751 87.4548 46.1191 89.0582 47.1778 90.377C48.2365 91.6958 49.6622 92.6709 51.2747 93.1788C52.8872 93.6867 54.614 93.7046 56.2367 93.2304C57.8594 92.7561 59.3051 91.811 60.391 90.5144L85.4712 60.6162Z" fill="black"/>
<path fill-rule="evenodd" clip-rule="evenodd" d="M78.8164 90.523C79.902 91.8165 81.3465 92.7591 82.9672 93.2314C84.5879 93.7037 86.3121 93.6847 87.922 93.1767C89.5319 92.6688 90.9552 91.6946 92.012 90.3774C93.0689 89.0602 93.7118 87.4591 93.8596 85.7764C94.0073 84.0936 93.6533 82.4049 92.8421 80.9234C92.031 79.442 90.7993 78.2345 89.3025 77.4534C87.8058 76.6722 86.1113 76.3527 84.4331 76.535C82.7549 76.7173 81.1684 77.3933 79.874 78.4777C72.4024 70.0029 52.9451 47.4352 52.9451 47.4352C51.4749 48.6569 48.0357 53.7934 53.7448 60.6248L78.8164 90.523Z" fill="black"/>
<circle cx="70" cy="70.5" r="49.0948" stroke="white" stroke-width="2"/>
</svg>
