<svg width="140" height="141" viewBox="0 0 140 141" fill="none" xmlns="http://www.w3.org/2000/svg">
<g clip-path="url(#clip0_105_1114)">
<path d="M108.863 101.755C125.841 80.0832 122.187 48.6324 100.701 31.5075C79.2147 14.3825 48.0329 18.0682 31.0545 39.7397C14.076 61.4112 17.7302 92.862 39.2163 109.987C60.7024 127.112 91.8842 123.426 108.863 101.755Z" fill="#FF7134"/>
<path d="M70 46.25C64.5319 46.2565 59.2896 48.4315 55.423 52.298C51.5565 56.1646 49.3814 61.4069 49.375 66.875C49.3684 71.3435 50.8281 75.6908 53.53 79.25C53.53 79.25 54.0925 79.9906 54.1844 80.0975L70 98.75L85.8231 80.0881C85.9056 79.9888 86.47 79.25 86.47 79.25L86.4719 79.2444C89.1724 75.6868 90.6314 71.3415 90.625 66.875C90.6185 61.4069 88.4435 56.1646 84.577 52.298C80.7104 48.4315 75.4681 46.2565 70 46.25ZM70 74.375C68.5166 74.375 67.0666 73.9351 65.8332 73.111C64.5999 72.2869 63.6386 71.1156 63.0709 69.7451C62.5032 68.3747 62.3547 66.8667 62.6441 65.4118C62.9335 63.957 63.6478 62.6206 64.6967 61.5717C65.7456 60.5228 67.082 59.8085 68.5368 59.5191C69.9917 59.2297 71.4997 59.3782 72.8701 59.9459C74.2406 60.5136 75.4119 61.4749 76.236 62.7082C77.0601 63.9416 77.5 65.3916 77.5 66.875C77.4975 68.8634 76.7065 70.7696 75.3006 72.1756C73.8946 73.5815 71.9884 74.3725 70 74.375Z" fill="black"/>
<circle cx="70" cy="70.5" r="49.0948" stroke="white" stroke-width="2"/>
</g>
<defs>
<clipPath id="clip0_105_1114">
<rect width="140" height="140" fill="white" transform="translate(0 0.5)"/>
</clipPath>
</defs>
</svg>
